<?xml version="1.0" standalone="no"?><!DOCTYPE svg PUBLIC "-//W3C//DTD SVG 1.1//EN" "http://www.w3.org/Graphics/SVG/1.1/DTD/svg11.dtd"><svg t="1629422480377" class="icon" viewBox="0 0 1024 1024" version="1.1" xmlns="http://www.w3.org/2000/svg" p-id="2092" xmlns:xlink="http://www.w3.org/1999/xlink" width="200" height="200"><defs><style type="text/css"></style></defs><path d="M541.42976 604.02176H482.57536c-17.65888 0-29.42976 11.776-29.42976 29.43488l-82.39616 264.84224c0 17.664 11.776 29.43488 29.42464 29.43488h5.888l82.40128-64.7424c11.77088-17.664 35.30752-17.664 47.0784 0l82.40128 64.7424h5.888c17.65376 0 29.42464-11.776 29.42464-29.43488l-82.39616-264.84224c0-17.664-11.776-29.43488-29.42976-29.43488zM305.64864 927.73376v-5.888l117.7088-288.38912H340.9664c-17.65888 0-35.31264 11.76576-35.31264 29.42464l-135.3728 323.70688c0 17.65888 17.664 29.42976 35.31776 29.42976h11.77088l135.3728-64.7424c-11.776 0-47.08864-11.776-47.08864-23.54176zM681.37984 633.45664h-82.40128l117.7088 288.38912v5.888c0 11.77088-35.30752 23.54176-47.0784 23.54176l135.36768 64.7424h11.776c17.64864 0 35.30752-11.776 35.30752-29.42976l-135.3728-323.70688c0-17.65376-17.65376-29.42464-35.30752-29.42464z" p-id="2093"></path><path d="M512.00512 476.8256m-81.65888 0a81.65888 81.65888 0 1 0 163.31776 0 81.65888 81.65888 0 1 0-163.31776 0Z" p-id="2094"></path><path d="M650.9056 480.80384l86.06208 102.62528c23.45472-44.01664 33.7152-80.47616 33.7152-119.69024 0-69.888-29.02016-133.28384-75.904-179.18976C647.95136 238.68928 583.30112 210.2784 512 210.2784c-71.30112 0-135.95136 28.40576-182.784 74.2656-46.88384 45.90592-75.904 109.29664-75.904 179.18976 0 41.33376 12.2368 85.65248 49.152 143.8464L383.55968 465.664c-0.53248-35.86048 13.80864-67.34848 37.9904-89.73312 23.9616-22.18496 57.4976-35.42016 95.67744-35.42016 36.33664 0 70.39488 15.0784 95.03232 40.40704 24.22784 24.9088 39.33184 59.72992 38.63552 99.8912z" p-id="2095"></path><path d="M512.00512 2.2528C241.8432 2.2528 22.05696 214.12864 22.05696 474.5472c0 111.7696 40.2688 217.84064 116.4288 306.7136l16.6912 19.46624L229.4272 685.2096l-8.57088-10.72128c-44.0832-55.0912-66.43712-122.368-66.43712-199.94624 0-190.68416 160.4096-345.8048 357.58592-345.8048 197.16608 0 357.5808 155.12064 357.5808 345.8048 0 69.65248-22.6048 137.25696-67.17952 200.92416l-7.3472 10.50624 73.23648 113.94048 16.74752-18.14528c74.28096-80.4864 116.89984-192.45056 116.89984-307.2256C1001.94304 214.1184 782.16192 2.2528 512 2.2528z" p-id="2096"></path></svg>